<svg width="20" height="20" viewBox="0 0 20 20" fill="none" xmlns="http://www.w3.org/2000/svg">
<path d="M9.99992 14.5057C10.486 14.5057 10.8803 14.8993 10.8805 15.3854V18.2858C10.8805 18.772 10.4862 19.1663 9.99992 19.1663C9.51368 19.1663 9.11938 18.772 9.11938 18.2858V15.3854C9.11957 14.8993 9.51379 14.5057 9.99992 14.5057Z" fill="#FFD552"/>
<path d="M5.56877 13.1857C5.91256 12.8419 6.47006 12.842 6.81388 13.1857C7.1577 13.5295 7.1577 14.087 6.81388 14.4308L4.7631 16.4816C4.41928 16.8254 3.8618 16.8254 3.51799 16.4816C3.17427 16.1378 3.17422 15.5803 3.51799 15.2365L5.56877 13.1857Z" fill="#FFD552"/>
<path d="M13.186 13.1857C13.5298 12.8419 14.0873 12.8419 14.4311 13.1857L16.4819 15.2365C16.8256 15.5803 16.8256 16.1378 16.4819 16.4816C16.1381 16.8254 15.5806 16.8253 15.2367 16.4816L13.186 14.4308C12.8421 14.087 12.8421 13.5295 13.186 13.1857Z" fill="#FFD552"/>
<path d="M4.61418 9.11914C5.10026 9.11932 5.49389 9.51355 5.4939 9.99967C5.4939 10.4858 5.10027 10.88 4.61418 10.8802H1.71379C1.22755 10.8802 0.833252 10.4859 0.833252 9.99967C0.833262 9.51344 1.22755 9.11914 1.71379 9.11914H4.61418Z" fill="#FFD552"/>
<path d="M18.2861 9.11914C18.7723 9.11914 19.1666 9.51344 19.1666 9.99967C19.1666 10.4859 18.7723 10.8802 18.2861 10.8802H15.3857C14.8996 10.88 14.5059 10.4858 14.5059 9.99967C14.506 9.51355 14.8996 9.11932 15.3857 9.11914H18.2861Z" fill="#FFD552"/>
<path d="M3.51799 3.51774C3.8618 3.17393 4.41928 3.17395 4.7631 3.51774L6.81388 5.56852C7.1577 5.91235 7.1577 6.46982 6.81388 6.81364C6.47006 7.15738 5.91256 7.15743 5.56877 6.81364L3.51799 4.76286C3.17422 4.41906 3.17425 3.86156 3.51799 3.51774Z" fill="#FFD552"/>
<path d="M15.2367 3.51774C15.5806 3.17403 16.1381 3.17396 16.4819 3.51774C16.8256 3.86153 16.8256 4.41903 16.4819 4.76286L14.4311 6.81364C14.0872 7.15746 13.5298 7.15746 13.186 6.81364C12.8421 6.46982 12.8421 5.91235 13.186 5.56852L15.2367 3.51774Z" fill="#FFD552"/>
<path d="M9.99992 0.833008C10.4862 0.833008 10.8805 1.2273 10.8805 1.71354V4.61393C10.8803 5.10002 10.4861 5.49365 9.99992 5.49365C9.51379 5.49365 9.11956 5.10002 9.11938 4.61393V1.71354C9.11938 1.2273 9.51368 0.833008 9.99992 0.833008Z" fill="#FFD552"/>
</svg>
