<svg width="24" height="24" viewBox="0 0 24 24" fill="none" xmlns="http://www.w3.org/2000/svg">
<path d="M12.0244 17.5C12.8393 17.5 13.5 18.1716 13.5 19C13.5 19.8284 12.8393 20.5 12.0244 20.5H11.9756C11.1607 20.5 10.5 19.8284 10.5 19C10.5 18.1716 11.1607 17.5 11.9756 17.5H12.0244Z" fill="white"/>
<path d="M12.0244 10.5C12.8393 10.5 13.5 11.1716 13.5 12C13.5 12.8284 12.8393 13.5 12.0244 13.5H11.9756C11.1607 13.5 10.5 12.8284 10.5 12C10.5 11.1716 11.1607 10.5 11.9756 10.5H12.0244Z" fill="white"/>
<path d="M12.0244 3.5C12.8393 3.5 13.5 4.17157 13.5 5C13.5 5.82843 12.8393 6.5 12.0244 6.5H11.9756C11.1607 6.5 10.5 5.82843 10.5 5C10.5 4.17157 11.1607 3.5 11.9756 3.5H12.0244Z" fill="white"/>
</svg>
