<svg width="16" height="16" viewBox="0 0 16 16" fill="none" xmlns="http://www.w3.org/2000/svg">
<path fill-rule="evenodd" clip-rule="evenodd" d="M6.60457 2.19389C7.24534 1.03957 8.90469 1.0478 9.53426 2.20821L15.128 11.856C15.7335 12.9727 14.927 14.3324 13.6593 14.3326H2.3409C1.06607 14.3322 0.260072 12.9586 0.87996 11.8417L6.60457 2.19389ZM7.99064 10.1014C7.59841 10.1016 7.28037 10.4204 7.28035 10.8137V10.981C7.28046 11.3742 7.59847 11.6937 7.99064 11.6939C8.38294 11.6939 8.70082 11.3743 8.70092 10.981V10.8137C8.7009 10.4203 8.383 10.1015 7.99064 10.1014ZM7.99064 5.5767C7.6229 5.57687 7.3206 5.85693 7.28426 6.21602L7.28035 6.28894V8.30001L7.28426 8.37227C7.32064 8.73132 7.62293 9.01208 7.99064 9.01225C8.38288 9.01223 8.70072 8.6932 8.70092 8.30001V6.28894L8.69702 6.21602C8.66067 5.85683 8.35851 5.57672 7.99064 5.5767Z" fill="#C2FF0A"/>
</svg>
