<svg width="18" height="18" viewBox="0 0 18 18" fill="none" xmlns="http://www.w3.org/2000/svg">
<path d="M6.2174 3.75414C5.83935 3.79254 5.54435 4.1118 5.54413 4.49992C5.54413 4.88822 5.83924 5.20726 6.2174 5.2457L6.29405 5.24984L11.6895 5.24984L4.59223 12.3471C4.29934 12.64 4.29934 13.1148 4.59223 13.4077C4.88513 13.7005 5.36005 13.7006 5.65289 13.4077L12.7491 6.31154V11.7049C12.7491 12.1191 13.0848 12.4548 13.499 12.4548C13.9132 12.4548 14.2489 12.1191 14.2489 11.7049V4.87488L14.2427 4.75991C14.1887 4.23067 13.7683 3.80998 13.239 3.75621L13.124 3.75L6.29405 3.75L6.2174 3.75414Z" fill="white" fill-opacity="0.72"/>
</svg>
