<svg width="18" height="18" viewBox="0 0 18 18" fill="none" xmlns="http://www.w3.org/2000/svg">
<path d="M14.4555 10.7556C14.6957 10.4611 14.6785 10.0268 14.4042 9.7522C14.1297 9.47763 13.6954 9.46071 13.4008 9.70093L13.3437 9.7522L9.74823 13.3477V3C9.74823 2.58579 9.41245 2.25 8.99824 2.25C8.58413 2.25013 8.24824 2.58587 8.24823 3V13.3462L4.65424 9.7522C4.36135 9.45931 3.88659 9.45932 3.59369 9.7522C3.3008 10.0451 3.3008 10.5199 3.59369 10.8127L8.20356 15.4226L8.28925 15.4995C8.70164 15.8356 9.2964 15.8358 9.70868 15.4995L9.79438 15.4226L14.4042 10.8127L14.4555 10.7556Z" fill="white" fill-opacity="0.72"/>
</svg>
