<svg width="20" height="20" viewBox="0 0 20 20" fill="none" xmlns="http://www.w3.org/2000/svg">
<path d="M1.66675 6.98037C1.66675 6.68844 1.66675 6.54247 1.67893 6.41952C1.79642 5.23374 2.73447 4.29568 3.92026 4.1782C4.0432 4.16602 4.19705 4.16602 4.50473 4.16602C4.62329 4.16602 4.68257 4.16602 4.7329 4.16297C5.37559 4.12404 5.93837 3.71841 6.17854 3.12101C6.19734 3.07423 6.21492 3.02149 6.25008 2.91602C6.28524 2.81054 6.30282 2.7578 6.32163 2.71102C6.56179 2.11362 7.12457 1.70799 7.76726 1.66906C7.81759 1.66602 7.87318 1.66602 7.98436 1.66602H12.0158C12.127 1.66602 12.1826 1.66602 12.2329 1.66906C12.8756 1.70799 13.4384 2.11362 13.6785 2.71102C13.6973 2.7578 13.7149 2.81054 13.7501 2.91602C13.7852 3.02149 13.8028 3.07423 13.8216 3.12101C14.0618 3.71841 14.6246 4.12404 15.2673 4.16297C15.3176 4.16602 15.3769 4.16602 15.4954 4.16602C15.8031 4.16602 15.957 4.16602 16.0799 4.1782C17.2657 4.29568 18.2037 5.23374 18.3212 6.41952C18.3334 6.54247 18.3334 6.68844 18.3334 6.98037V13.4993C18.3334 14.8995 18.3334 15.5995 18.0609 16.1343C17.8212 16.6047 17.4388 16.9872 16.9684 17.2269C16.4336 17.4993 15.7335 17.4993 14.3334 17.4993H5.66675C4.26662 17.4993 3.56655 17.4993 3.03177 17.2269C2.56137 16.9872 2.17892 16.6047 1.93923 16.1343C1.66675 15.5995 1.66675 14.8995 1.66675 13.4993V6.98037Z" stroke="white" stroke-width="1.5" stroke-linecap="round" stroke-linejoin="round"/>
<path d="M10.0001 13.7493C11.841 13.7493 13.3334 12.257 13.3334 10.416C13.3334 8.57507 11.841 7.08268 10.0001 7.08268C8.15913 7.08268 6.66675 8.57507 6.66675 10.416C6.66675 12.257 8.15913 13.7493 10.0001 13.7493Z" stroke="white" stroke-width="1.5" stroke-linecap="round" stroke-linejoin="round"/>
</svg>
