<svg width="20" height="20" viewBox="0 0 20 20" fill="none" xmlns="http://www.w3.org/2000/svg">
<g clip-path="url(#clip0_366_14190)">
<path fill-rule="evenodd" clip-rule="evenodd" d="M3.51819 3.51819C7.098 -0.0616185 12.902 -0.0616185 16.4818 3.51819C20.0616 7.09799 20.0616 12.902 16.4818 16.4818C12.902 20.0616 7.098 20.0616 3.51819 16.4818C-0.061617 12.902 -0.061617 7.09799 3.51819 3.51819ZM7.05372 7.05372C6.72829 7.37916 6.72829 7.9068 7.05372 8.23223L8.82149 10L7.05372 11.7678C6.72829 12.0932 6.72829 12.6208 7.05372 12.9463C7.37916 13.2717 7.9068 13.2717 8.23223 12.9463L10 11.1785L11.7678 12.9463C12.0932 13.2717 12.6208 13.2717 12.9463 12.9463C13.2717 12.6208 13.2717 12.0932 12.9463 11.7678L11.1785 10L12.9463 8.23223C13.2717 7.9068 13.2717 7.37916 12.9463 7.05372C12.6208 6.72828 12.0932 6.72829 11.7678 7.05372L10 8.82149L8.23223 7.05372C7.9068 6.72829 7.37916 6.72828 7.05372 7.05372Z" fill="#8F8C9C"/>
</g>
<defs>
<clipPath id="clip0_366_14190">
<rect width="20" height="20" fill="white" transform="matrix(-1 0 0 -1 20 20)"/>
</clipPath>
</defs>
</svg>
