<svg width="24" height="24" viewBox="0 0 24 24" fill="none" xmlns="http://www.w3.org/2000/svg">
<path d="M5.06566 5.06532C5.46028 4.67081 6.08478 4.64673 6.50804 4.99207L6.59007 5.06532L12.0002 10.4755L17.4104 5.06532L17.4924 4.99207C17.9157 4.6467 18.5402 4.6707 18.9348 5.06532C19.3294 5.45994 19.3534 6.08442 19.008 6.5077L18.9348 6.58973L13.5246 11.9999L18.9348 17.41C19.3555 17.8309 19.3556 18.5136 18.9348 18.9345C18.514 19.3553 17.8313 19.3552 17.4104 18.9345L12.0002 13.5243L6.59007 18.9345C6.16924 19.3553 5.48655 19.3552 5.06566 18.9345C4.64478 18.5136 4.64478 17.8309 5.06566 17.41L10.4758 11.9999L5.06566 6.58973L4.99242 6.5077C4.64703 6.0844 4.67104 5.45993 5.06566 5.06532Z" fill="white"/>
</svg>
