<svg width="22" height="22" viewBox="0 0 22 22" fill="none" xmlns="http://www.w3.org/2000/svg">
<path d="M9.09471 1.48974C9.3031 1.25699 9.55824 1.07081 9.84347 0.943347C10.1287 0.815883 10.4376 0.75 10.75 0.75C11.0624 0.75 11.3713 0.815883 11.6565 0.943347C11.9418 1.07081 12.1969 1.25699 12.4053 1.48974L13.1829 2.35849C13.4052 2.60678 13.6805 2.8019 13.9883 2.92939C14.2962 3.05689 14.6288 3.1135 14.9616 3.09504L16.128 3.03061C16.44 3.01341 16.7522 3.06221 17.044 3.17383C17.3359 3.28545 17.6009 3.45738 17.8218 3.67838C18.0427 3.89938 18.2145 4.1645 18.326 4.45641C18.4375 4.74832 18.4861 5.06046 18.4688 5.37246L18.4043 6.53783C18.386 6.87036 18.4427 7.20276 18.5702 7.51044C18.6977 7.81811 18.8927 8.09319 19.1409 8.31532L20.0096 9.09297C20.2426 9.30138 20.4289 9.55658 20.5565 9.84191C20.6841 10.1272 20.75 10.4363 20.75 10.7488C20.75 11.0614 20.6841 11.3704 20.5565 11.6557C20.4289 11.9411 20.2426 12.1963 20.0096 12.4047L19.1409 13.1823C18.8926 13.4046 18.6975 13.6798 18.57 13.9877C18.4425 14.2956 18.3859 14.6282 18.4043 14.9609L18.4688 16.1274C18.486 16.4394 18.4372 16.7515 18.3255 17.0434C18.2139 17.3352 18.042 17.6003 17.821 17.8212C17.6 18.0421 17.3349 18.2139 17.043 18.3254C16.7511 18.4368 16.4389 18.4855 16.1269 18.4682L14.9616 18.4037C14.629 18.3854 14.2966 18.4421 13.9889 18.5696C13.6813 18.6971 13.4062 18.8921 13.1841 19.1403L12.4064 20.009C12.198 20.2419 11.9428 20.4283 11.6575 20.5559C11.3721 20.6834 11.0631 20.7494 10.7506 20.7494C10.438 20.7494 10.129 20.6834 9.84364 20.5559C9.55831 20.4283 9.30311 20.2419 9.09471 20.009L8.31705 19.1403C8.0948 18.892 7.81954 18.6969 7.51166 18.5694C7.20378 18.4419 6.87117 18.3853 6.53845 18.4037L5.37197 18.4682C5.05996 18.4854 4.74784 18.4365 4.45599 18.3249C4.16413 18.2133 3.8991 18.0414 3.6782 17.8204C3.4573 17.5994 3.2855 17.3343 3.17402 17.0423C3.06253 16.7504 3.01388 16.4383 3.03123 16.1263L3.09566 14.9609C3.11396 14.6284 3.05726 14.296 2.92977 13.9883C2.80228 13.6806 2.60725 13.4056 2.35911 13.1834L1.49036 12.4058C1.25743 12.1974 1.07109 11.9422 0.943517 11.6568C0.815942 11.3715 0.75 11.0625 0.75 10.7499C0.75 10.4374 0.815942 10.1283 0.943517 9.84302C1.07109 9.55769 1.25743 9.30249 1.49036 9.09409L2.35911 8.31643C2.6074 8.09418 2.80252 7.81892 2.93001 7.51104C3.05751 7.20316 3.11412 6.87055 3.09566 6.53783L3.03123 5.37134C3.01419 5.05943 3.06311 4.74744 3.17481 4.45571C3.2865 4.16399 3.45845 3.8991 3.67944 3.67832C3.90042 3.45754 4.16548 3.28584 4.45731 3.17443C4.74914 3.06301 5.06118 3.01438 5.37308 3.03172L6.53845 3.09615C6.87098 3.11445 7.20338 3.05775 7.51106 2.93026C7.81873 2.80277 8.09381 2.60774 8.31594 2.3596L9.09471 1.48974Z" stroke="#C2FF0A" stroke-width="1.5"/>
<path d="M7.97266 7.97119H7.98377V7.9823H7.97266V7.97119ZM13.5273 13.5259H13.5384V13.537H13.5273V13.5259Z" stroke="#C2FF0A" stroke-width="2.25" stroke-linejoin="round"/>
<path d="M14.0826 7.41553L7.41699 14.0811" stroke="#C2FF0A" stroke-width="1.5" stroke-linecap="round" stroke-linejoin="round"/>
</svg>
