<svg width="20" height="20" viewBox="0 0 20 20" fill="none" xmlns="http://www.w3.org/2000/svg">
<path d="M8.86721 13.3063C9.30078 13.819 9.51756 14.0753 9.79067 14.1415C9.92806 14.1748 10.0721 14.1748 10.2095 14.1415C10.4826 14.0753 10.6994 13.819 11.133 13.3063L14.8623 8.89632C15.5387 8.09637 15.877 7.69639 15.8289 7.35811C15.8052 7.19099 15.7261 7.03528 15.6029 6.91334C15.3538 6.6665 14.8123 6.6665 13.7294 6.6665H6.27078C5.18787 6.6665 4.64641 6.6665 4.39722 6.91334C4.27411 7.03528 4.195 7.19099 4.17125 7.35811C4.12317 7.69639 4.46142 8.09637 5.13791 8.89632L8.86721 13.3063Z" fill="white" fill-opacity="0.48"/>
</svg>
