<svg width="24" height="24" viewBox="0 0 24 24" fill="none" xmlns="http://www.w3.org/2000/svg">
<path d="M11.6348 6.50879C12.187 6.50885 12.6347 6.95657 12.6348 7.50879V12.1807L16.2227 14.3213C16.6968 14.6042 16.8521 15.2181 16.5693 15.6924C16.2864 16.1666 15.6725 16.3218 15.1982 16.0391L11.3662 13.7529C10.9126 13.4823 10.6348 12.9931 10.6348 12.4648V7.50879C10.6348 6.95653 11.0825 6.50879 11.6348 6.50879Z" fill="white"/>
<path fill-rule="evenodd" clip-rule="evenodd" d="M12 1C18.0751 1.00007 23 5.92494 23 12C23 18.0751 18.0751 22.9999 12 23C5.92494 22.9999 1.00003 18.0751 1 12C1.00003 5.92494 5.92494 1.00007 12 1ZM12 3C7.02951 3.00007 3.00003 7.02951 3 12C3.00003 16.9705 7.02951 20.9999 12 21C16.9705 20.9999 21 16.9705 21 12C21 7.02951 16.9705 3.00007 12 3Z" fill="white"/>
</svg>
