<svg width="20" height="20" viewBox="0 0 20 20" fill="none" xmlns="http://www.w3.org/2000/svg">
<path fill-rule="evenodd" clip-rule="evenodd" d="M8.46538 2.63814C9.36814 1.93608 10.6323 1.93602 11.535 2.63814L18.0121 7.67558L18.0764 7.73092C18.3819 8.02255 18.4226 8.50441 18.1578 8.84501C17.9937 9.0558 17.7482 9.16545 17.5002 9.16565V16.2498C17.5002 17.4004 16.5674 18.3331 15.4169 18.3331H4.58354C3.43295 18.3331 2.50021 17.4004 2.50021 16.2498V9.16565C2.25212 9.16553 2.0068 9.05586 1.84266 8.84501C1.56017 8.48182 1.62528 7.95819 1.98833 7.67558L8.46538 2.63814ZM10.8335 11.6665C9.6006 11.6665 8.50904 11.6668 8.31157 11.6803C8.12188 11.6932 8.04925 11.7156 8.01453 11.7299C7.81046 11.8145 7.64827 11.9767 7.56368 12.1808C7.54932 12.2155 7.52701 12.288 7.51404 12.4778C7.50057 12.6753 7.50021 12.9335 7.50021 13.3331V16.6665H12.5002V13.3331C12.5002 12.9335 12.4998 12.6753 12.4864 12.4778C12.4734 12.288 12.4511 12.2155 12.4367 12.1808C12.3522 11.9767 12.1899 11.8145 11.9859 11.7299C11.9512 11.7156 11.8787 11.6933 11.6888 11.6803C11.4914 11.6668 11.2332 11.6665 10.8335 11.6665Z" fill="#0E0D1F"/>
</svg>
