<svg width="20" height="20" viewBox="0 0 20 20" fill="none" xmlns="http://www.w3.org/2000/svg">
<path d="M7.49992 6.24935C8.19028 6.24935 8.74992 6.80899 8.74992 7.49935C8.74992 8.18971 8.19028 8.74935 7.49992 8.74935C6.80956 8.74935 6.24992 8.18971 6.24992 7.49935C6.24992 6.80899 6.80956 6.24935 7.49992 6.24935Z" fill="white"/>
<path fill-rule="evenodd" clip-rule="evenodd" d="M17.0833 2.91602C18.2338 2.91602 19.1666 3.84876 19.1666 4.99935V14.9993C19.1666 16.1499 18.2338 17.0827 17.0833 17.0827H2.91659C1.76599 17.0827 0.833252 16.1499 0.833252 14.9993V4.99935C0.833252 3.84876 1.76599 2.91602 2.91659 2.91602H17.0833ZM9.21704 13.6273C8.72889 14.1154 7.93761 14.1154 7.44946 13.6273L5.83325 12.0111L2.58944 15.2541C2.66569 15.3519 2.78298 15.416 2.91659 15.416H17.0833C17.2167 15.416 17.3333 15.3516 17.4096 15.2541L12.4999 10.3444L9.21704 13.6273ZM2.91659 4.58268C2.68647 4.58268 2.49992 4.76923 2.49992 4.99935V12.9876L4.94946 10.5381L5.04468 10.4526C5.5029 10.0789 6.1636 10.0789 6.62183 10.4526L6.71704 10.5381L8.33325 12.1543L11.6161 8.87142L11.7113 8.78597C12.1696 8.41226 12.8303 8.41226 13.2885 8.78597L13.3837 8.87142L17.4999 12.9876V4.99935C17.4999 4.76923 17.3134 4.58268 17.0833 4.58268H2.91659Z" fill="white"/>
</svg>
