<svg width="12" height="12" viewBox="0 0 12 12" fill="none" xmlns="http://www.w3.org/2000/svg">
<g clip-path="url(#clip0_1023_9152)">
<path d="M6 5.3125C6.31066 5.3125 6.5625 5.56434 6.5625 5.875V8.25C6.5625 8.56066 6.31066 8.8125 6 8.8125C5.68934 8.8125 5.4375 8.56066 5.4375 8.25V5.875C5.4375 5.56434 5.68934 5.3125 6 5.3125Z" fill="white" fill-opacity="0.64"/>
<path d="M6 3.1875C6.31066 3.1875 6.5625 3.43934 6.5625 3.75V4.125C6.5625 4.43566 6.31066 4.6875 6 4.6875C5.68934 4.6875 5.4375 4.43566 5.4375 4.125V3.75C5.4375 3.43934 5.68934 3.1875 6 3.1875Z" fill="white" fill-opacity="0.64"/>
<path fill-rule="evenodd" clip-rule="evenodd" d="M6 0.5C9.03757 0.5 11.5 2.96243 11.5 6C11.5 9.03757 9.03757 11.5 6 11.5C2.96243 11.5 0.5 9.03757 0.5 6C0.5 2.96243 2.96243 0.5 6 0.5ZM6 1.5C3.51472 1.5 1.5 3.51472 1.5 6C1.5 8.48528 3.51472 10.5 6 10.5C8.48528 10.5 10.5 8.48528 10.5 6C10.5 3.51472 8.48528 1.5 6 1.5Z" fill="white" fill-opacity="0.64"/>
</g>
<defs>
<clipPath id="clip0_1023_9152">
<rect width="12" height="12" fill="white"/>
</clipPath>
</defs>
</svg>
