<svg width="132" height="107" viewBox="0 0 132 107" fill="none" xmlns="http://www.w3.org/2000/svg">
<g clip-path="url(#clip0_1023_14500)">
<path d="M101.635 82.1557C112.197 85.4981 118.066 96.9431 114.657 107.717C111.247 118.491 99.8621 124.476 89.3003 121.133C79.5826 118.058 74.0096 108.191 75.7665 98.2228C75.895 97.4932 75.7325 96.6896 75.1847 96.1059C71.3953 92.068 67.1229 92.1594 64.7158 92.6865C63.9464 92.855 63.3857 93.4241 63.0896 94.0739C58.8715 103.33 48.5174 108.228 38.7868 105.148C28.2252 101.806 22.3556 90.3609 25.765 79.5871C29.1745 68.8133 40.5597 62.8286 51.1214 66.1706C59.3583 68.7772 64.7343 76.3505 65.0156 84.754C65.0667 86.2795 66.3461 87.508 67.8497 87.5703C70.3358 87.6734 73.0268 88.385 75.6274 90.0848C76.8903 90.9103 78.6409 90.6304 79.5543 89.4121C84.575 82.7159 93.3563 79.5359 101.635 82.1557ZM49.6223 70.9078C41.6149 68.3741 33.0285 72.9285 30.452 81.0703C27.8758 89.211 32.2272 97.8618 40.2856 100.412C48.3442 102.962 56.8809 98.3899 59.4571 90.249C62.0332 82.1082 57.6808 73.458 49.6223 70.9078ZM100.136 86.8929C92.0773 84.3428 83.5408 88.9143 80.9645 97.055C78.3883 105.196 82.7405 113.847 90.7991 116.397C98.8044 118.93 107.443 114.394 110.02 106.25C112.597 98.1067 108.192 89.4424 100.136 86.8929ZM32.3197 46.4932L128.334 76.8771C129.124 77.127 129.561 77.9699 129.311 78.7597L128.149 82.4327C127.899 83.2226 127.056 83.6602 126.266 83.4103L30.2522 53.0264C29.4624 52.7765 29.0248 51.9336 29.2747 51.1438L30.437 47.4708L30.4907 47.327C30.7921 46.6288 31.5791 46.2589 32.3197 46.4932ZM104.908 23.0377C107.564 23.0274 109.736 25.016 110.031 27.5589L110.035 27.5888L110.042 27.6174L110.072 27.747C110.092 27.8307 110.105 27.916 110.111 28.0018L112.116 60.3189C112.181 61.3703 111.171 62.1595 110.166 61.8416L55.826 44.6456C54.8225 44.328 54.4493 43.1027 55.1058 42.28L75.3985 16.8502L75.3991 16.8514C77.0417 14.8211 79.9928 14.3532 82.1858 15.7971L82.2017 15.8083L82.2192 15.818L82.4254 15.9303L91.8236 22.7394C92.2607 23.056 92.7889 23.2227 93.3285 23.2146L104.907 23.0365L104.908 23.0377Z" fill="url(#paint0_linear_1023_14500)" stroke="url(#paint1_linear_1023_14500)"/>
</g>
<defs>
<linearGradient id="paint0_linear_1023_14500" x1="38.2937" y1="106.351" x2="112.857" y2="14.9399" gradientUnits="userSpaceOnUse">
<stop stop-color="#4721FF"/>
<stop offset="1" stop-color="#C2FF0A"/>
</linearGradient>
<linearGradient id="paint1_linear_1023_14500" x1="99.5352" y1="20.5519" x2="52.8663" y2="108.874" gradientUnits="userSpaceOnUse">
<stop stop-color="#BFED33"/>
<stop offset="1" stop-color="#4F2AFF"/>
</linearGradient>
<clipPath id="clip0_1023_14500">
<rect width="125.649" height="125.649" fill="white" transform="translate(37.9092 -13) rotate(17.5601)"/>
</clipPath>
</defs>
</svg>
