<svg width="24" height="24" viewBox="0 0 24 24" fill="none" xmlns="http://www.w3.org/2000/svg">
<path d="M20.1 4.5C17.3445 4.5 14.871 4.0005 12.639 1.764C12.4702 1.59546 12.2415 1.50079 12.003 1.50079C11.7645 1.50079 11.5357 1.59546 11.367 1.764C9.12896 4.0005 6.65396 4.5 3.90147 4.5C3.66277 4.5 3.43385 4.59482 3.26507 4.76361C3.09629 4.93239 3.00146 5.16131 3.00146 5.4V10.803C3.00146 16.596 5.95646 20.5335 11.7165 22.455C11.9014 22.5168 12.1015 22.5168 12.2865 22.455C18.048 20.535 21.0015 16.596 21.0015 10.803V5.4C21.0015 4.9035 20.5965 4.5 20.1 4.5ZM19.5 10.8015C19.5 15.8955 17.046 19.2225 12 20.9655C6.95396 19.2225 4.49996 15.8955 4.49996 10.8015V5.9925C6.86846 5.934 9.52797 5.469 12.0015 3.228C14.4705 5.4675 17.1315 5.9325 19.5 5.9925V10.8015ZM11.2485 13.1895L15.2175 9.2205C15.2872 9.15077 15.37 9.09546 15.4611 9.05772C15.5522 9.01998 15.6498 9.00055 15.7485 9.00055C15.8471 9.00055 15.9447 9.01998 16.0358 9.05772C16.1269 9.09546 16.2097 9.15077 16.2795 9.2205C16.3492 9.29023 16.4045 9.37302 16.4423 9.46413C16.48 9.55524 16.4994 9.65289 16.4994 9.7515C16.4994 9.85012 16.48 9.94777 16.4423 10.0389C16.4045 10.13 16.3492 10.2128 16.2795 10.2825L11.7795 14.7825C11.7098 14.8523 11.627 14.9078 11.5359 14.9456C11.4448 14.9834 11.3471 15.0028 11.2485 15.0028C11.1498 15.0028 11.0521 14.9834 10.961 14.9456C10.8699 14.9078 10.7871 14.8523 10.7175 14.7825L8.46746 12.5325C8.32663 12.3917 8.24752 12.2007 8.24752 12.0015C8.24752 11.8023 8.32663 11.6113 8.46746 11.4705C8.60829 11.3297 8.7993 11.2506 8.99847 11.2506C9.19763 11.2506 9.38864 11.3297 9.52947 11.4705L11.2485 13.1895Z" fill="#C2FF0A"/>
</svg>
