<svg width="24" height="24" viewBox="0 0 24 24" fill="none" xmlns="http://www.w3.org/2000/svg">
<path d="M17.6509 7.65C16.8053 6.55151 15.6579 5.72331 14.349 5.26672C13.04 4.81014 11.6264 4.74497 10.281 5.0792C8.93566 5.41342 7.71687 6.13254 6.77378 7.14857C5.83069 8.1646 5.2042 9.43349 4.97095 10.8M18.0009 4V8H14.0009M6.34895 16.35C7.19432 17.4489 8.34176 18.2775 9.65079 18.7344C10.9598 19.1912 12.3737 19.2565 13.7192 18.9223C15.0648 18.588 16.2837 17.8687 17.2268 16.8523C18.1698 15.836 18.7961 14.5668 19.0289 13.2M5.99995 20V16H9.99995" stroke="#C2FF0A" stroke-width="1.5" stroke-linecap="round" stroke-linejoin="round"/>
</svg>
