<svg width="43" height="43" viewBox="0 0 43 43" fill="none" xmlns="http://www.w3.org/2000/svg">
<g clip-path="url(#clip0_807_73312)">
<path d="M19.8685 32.4092C21.1223 32.4089 22.3263 32.8991 23.223 33.7754C24.1198 34.6519 24.638 35.845 24.6664 37.0986C24.6808 37.7376 24.5679 38.3733 24.3334 38.9678C24.0989 39.5622 23.7477 40.1036 23.3011 40.5605C22.8545 41.0175 22.3208 41.3809 21.7318 41.6289C21.1428 41.8769 20.5096 42.0047 19.8705 42.0049C19.2315 42.005 18.5991 41.8775 18.0101 41.6299C17.421 41.3821 16.8868 41.0193 16.4398 40.5625C15.9929 40.1057 15.6414 39.5642 15.4066 38.9697C15.1718 38.3753 15.0585 37.7395 15.0726 37.1006C15.1004 35.847 15.6178 34.6542 16.514 33.7773C17.4104 32.9004 18.6146 32.4095 19.8685 32.4092ZM19.8685 0.5C25.7773 0.500126 30.8826 3.83871 32.9174 8.6709V8.66992C34.7028 13.0085 33.9248 17.5551 30.9056 20.5742C29.6422 21.8376 28.1403 22.5878 26.7777 23.4043C25.5486 24.0871 24.6693 24.8031 24.1088 25.7373C23.6172 26.5566 23.3987 27.498 23.3519 28.6396H16.4027C16.4875 25.0426 17.4849 22.6477 18.7748 20.9678C20.1315 19.2009 21.8407 18.1822 23.2865 17.3936L23.2855 17.3926C24.3613 16.8534 25.204 16.2983 25.7845 15.7178C26.5634 14.9389 26.7924 14.0036 26.7924 13.2119C26.7923 12.4329 26.5727 11.761 26.4086 11.4326H26.4076C25.5366 9.42454 23.5175 7.44739 19.8685 7.44727C16.906 7.44727 15.1027 8.80087 14.059 10.3125C13.2686 11.4573 12.9169 12.6881 12.7972 13.4756L5.86365 12.5518C6.21389 10.4209 7.30248 7.53785 9.38513 5.12793C11.6178 2.54455 14.9948 0.5 19.8685 0.5Z" fill="#BFED33" stroke="#E8FFA1"/>
</g>
<defs>
<clipPath id="clip0_807_73312">
<rect width="42.3854" height="42.3854" fill="white"/>
</clipPath>
</defs>
</svg>
