<svg width="24" height="24" viewBox="0 0 24 24" fill="none" xmlns="http://www.w3.org/2000/svg">
<path d="M20.25 18.376H3.75C3.19772 18.376 2.75 18.8237 2.75 19.376V20.376C2.75 20.9283 3.19772 21.376 3.75 21.376H20.25C20.8023 21.376 21.25 20.9283 21.25 20.376V19.376C21.25 18.8237 20.8023 18.376 20.25 18.376Z" stroke="white" stroke-opacity="0.64" stroke-linecap="round" stroke-linejoin="round"/>
<path d="M5.25 9.874V18.384M18.75 9.874V18.384M14.5 9.874V18.384M9.5 9.874V18.384M11.04 3.15L3.27 7.4C3.11263 7.48611 2.98132 7.61296 2.88984 7.76725C2.79835 7.92155 2.75005 8.09762 2.75 8.277V9.274C2.75 9.43313 2.81321 9.58575 2.92574 9.69827C3.03826 9.81079 3.19087 9.874 3.35 9.874H20.65C20.8091 9.874 20.9617 9.81079 21.0743 9.69827C21.1868 9.58575 21.25 9.43313 21.25 9.274V8.277C21.25 8.09762 21.2017 7.92155 21.1102 7.76725C21.0187 7.61296 20.8874 7.48611 20.73 7.4L12.96 3.15C12.6657 2.98895 12.3355 2.90454 12 2.90454C11.6645 2.90454 11.3343 2.98895 11.04 3.15Z" stroke="#B8B7BC" stroke-linecap="round" stroke-linejoin="round"/>
</svg>
