<svg width="24" height="24" viewBox="0 0 24 24" fill="none" xmlns="http://www.w3.org/2000/svg">
<path d="M5.5 10C5.622 10 5.736 9.943 5.963 9.83L7.788 8.922C8.596 8.519 9 8.318 9 8V4M5.5 10C5.378 10 5.264 9.943 5.037 9.83L3.212 8.922C2.404 8.519 2 8.318 2 8V4M5.5 10V6M9 4C9 3.682 8.596 3.48 7.788 3.078L5.963 2.17C5.736 2.057 5.623 2 5.5 2C5.378 2 5.264 2.057 5.037 2.17L3.212 3.078C2.404 3.481 2 3.682 2 4M9 4C9 4.318 8.596 4.52 7.788 4.922L5.963 5.83C5.736 5.943 5.623 6 5.5 6M2 4C2 4.318 2.404 4.52 3.212 4.922L5.037 5.83C5.264 5.943 5.377 6 5.5 6M18.5 10C18.622 10 18.736 9.943 18.963 9.83L20.788 8.922C21.596 8.519 22 8.318 22 8V4M18.5 10C18.378 10 18.264 9.943 18.037 9.83L16.212 8.922C15.404 8.519 15 8.318 15 8V4M18.5 10V6M22 4C22 3.682 21.596 3.48 20.788 3.078L18.963 2.17C18.736 2.057 18.623 2 18.5 2C18.378 2 18.264 2.057 18.037 2.17L16.212 3.078C15.404 3.481 15 3.682 15 4M22 4C22 4.318 21.596 4.52 20.788 4.922L18.963 5.83C18.736 5.943 18.623 6 18.5 6M15 4C15 4.318 15.404 4.52 16.212 4.922L18.037 5.83C18.264 5.943 18.377 6 18.5 6" stroke="#C2FF0A" stroke-linejoin="round"/>
<path d="M11.5 6H12.5M2 12V15.5C2 16.904 2 17.607 2.337 18.111C2.48296 18.3295 2.67053 18.517 2.889 18.663C3.393 19 4.096 19 5.5 19M22 12V15.5C22 16.904 22 17.607 21.663 18.111C21.517 18.3295 21.3295 18.517 21.111 18.663C20.607 19 19.904 19 18.5 19" stroke="#C2FF0A" stroke-linecap="round"/>
<path d="M12 22C12.122 22 12.236 21.944 12.463 21.83L14.288 20.922C15.096 20.52 15.5 20.318 15.5 20V16M12 22C11.878 22 11.764 21.944 11.537 21.83L9.712 20.922C8.904 20.52 8.5 20.318 8.5 20V16M12 22V18M15.5 16C15.5 15.682 15.096 15.48 14.288 15.078L12.463 14.17C12.236 14.056 12.123 14 12 14C11.878 14 11.764 14.056 11.537 14.17L9.712 15.078C8.904 15.48 8.5 15.682 8.5 16M15.5 16C15.5 16.318 15.096 16.52 14.288 16.922L12.463 17.83C12.236 17.944 12.123 18 12 18M8.5 16C8.5 16.318 8.904 16.52 9.712 16.922L11.537 17.83C11.764 17.944 11.877 18 12 18" stroke="#C2FF0A" stroke-linejoin="round"/>
</svg>
