<svg width="54" height="54" viewBox="0 0 54 54" fill="none" xmlns="http://www.w3.org/2000/svg">
<path d="M26.3076 40.5195C27.3683 40.5196 28.3857 40.9405 29.1357 41.6904C29.8859 42.4406 30.3076 43.4587 30.3076 44.5195C30.3075 45.5803 29.8858 46.5976 29.1357 47.3477C28.3856 48.0977 27.3684 48.5195 26.3076 48.5195C25.2469 48.5195 24.2296 48.0977 23.4795 47.3477C22.7294 46.5976 22.3077 45.5803 22.3076 44.5195C22.3076 43.4587 22.7293 42.4406 23.4795 41.6904C24.2296 40.9405 25.2469 40.5195 26.3076 40.5195ZM26.3076 4.5C27.3559 4.50002 28.3923 4.72532 29.3457 5.16113C30.2991 5.59696 31.1471 6.23363 31.833 7.02637C32.519 7.81911 33.027 8.7497 33.3213 9.75586C33.6156 10.7621 33.6897 11.8199 33.5391 12.8574V12.8584L30.9473 30.9922C30.7852 32.107 30.227 33.1262 29.375 33.8633C28.523 34.6003 27.4341 35.0058 26.3076 35.0059C25.1811 35.0059 24.0922 34.6003 23.2402 33.8633C22.4415 33.1723 21.9012 32.2334 21.7031 31.2002L21.668 30.9922L19.0762 12.8584V12.8574L19.0303 12.4678C18.9476 11.5564 19.0364 10.6364 19.2939 9.75586C19.5882 8.74988 20.0955 7.81902 20.7812 7.02637C21.4672 6.2336 22.3161 5.59696 23.2695 5.16113C24.223 4.72532 25.2593 4.5 26.3076 4.5Z" fill="#BFED33" stroke="#E8FFA1"/>
</svg>
