<svg width="20" height="20" viewBox="0 0 20 20" fill="none" xmlns="http://www.w3.org/2000/svg">
<g clip-path="url(#clip0_1023_3304)">
<path fill-rule="evenodd" clip-rule="evenodd" d="M9.99992 0.833008C15.0625 0.833008 19.1666 4.93706 19.1666 9.99967C19.1666 15.0623 15.0625 19.1663 9.99992 19.1663C4.93731 19.1663 0.833252 15.0623 0.833252 9.99967C0.833252 4.93706 4.93731 0.833008 9.99992 0.833008ZM14.0364 6.9292C13.7038 6.57892 13.1646 6.579 12.832 6.9292L8.81014 11.1667L7.1687 9.43408C6.83605 9.08495 6.29725 9.08332 5.96346 9.43246C5.63083 9.78278 5.63114 10.3513 5.96265 10.7028L8.20711 13.0702C8.36606 13.2387 8.58339 13.333 8.80933 13.333C9.03504 13.3329 9.25154 13.2385 9.41154 13.0702L14.0364 8.19792C14.369 7.84765 14.3689 7.27954 14.0364 6.9292Z" fill="#C2FF0A"/>
</g>
<defs>
<clipPath id="clip0_1023_3304">
<rect width="20" height="20" fill="white"/>
</clipPath>
</defs>
</svg>
