<svg width="24" height="24" viewBox="0 0 24 24" fill="none" xmlns="http://www.w3.org/2000/svg">
<path d="M12 1.375C17.8679 1.375 22.6249 6.13201 22.625 12C22.625 17.868 17.868 22.625 12 22.625C6.13215 22.6248 1.375 17.8678 1.375 12C1.37505 6.13215 6.13218 1.37521 12 1.375ZM12 14.625C9.13705 14.625 6.79664 16.8634 6.63379 19.6855C8.15423 20.7492 10.0036 21.3749 12 21.375C13.9958 21.375 15.845 20.7496 17.3652 19.6865C17.2028 16.864 14.8632 14.625 12 14.625ZM12 2.625C6.82254 2.62521 2.62505 6.8225 2.625 12C2.625 14.6498 3.72664 17.041 5.49414 18.7461C5.92482 16.4983 7.49122 14.6552 9.57324 13.835C8.54407 13.0849 7.87503 11.871 7.875 10.5C7.875 8.22182 9.72182 6.375 12 6.375C14.278 6.37521 16.125 8.22195 16.125 10.5C16.125 11.871 15.455 13.0849 14.4258 13.835C16.5085 14.6551 18.0744 16.4987 18.5049 18.7471C20.2732 17.0419 21.375 14.6505 21.375 12C21.3749 6.82237 17.1776 2.625 12 2.625ZM12 7.625C10.4122 7.625 9.125 8.91218 9.125 10.5C9.12505 12.0878 10.4122 13.375 12 13.375C13.5876 13.3748 14.8749 12.0876 14.875 10.5C14.875 8.91231 13.5876 7.62521 12 7.625Z" fill="white" fill-opacity="0.48"/>
</svg>
