<svg width="16" height="16" viewBox="0 0 16 16" fill="none" xmlns="http://www.w3.org/2000/svg">
<path d="M10.8936 3.81596C10.6318 3.60248 10.2457 3.61772 10.0016 3.86153C9.75757 4.1056 9.74253 4.49161 9.95605 4.75346L10.0016 4.80424L12.5309 7.33354H1.99967C1.63148 7.33354 1.33301 7.63202 1.33301 8.00021C1.33312 8.3683 1.63155 8.66687 1.99967 8.66687H12.5296L10.0016 11.1949C9.74128 11.4552 9.74129 11.8772 10.0016 12.1376C10.262 12.3979 10.684 12.3979 10.9443 12.1376L14.3753 8.70659L14.4437 8.63041C14.7424 8.26385 14.7426 7.73517 14.4437 7.3687L14.3753 7.29252L10.9443 3.86153L10.8936 3.81596Z" fill="#0E0D1F"/>
</svg>
