<svg width="24" height="24" viewBox="0 0 24 24" fill="none" xmlns="http://www.w3.org/2000/svg">
<path d="M9.66135 4.72419C10.054 4.40396 10.6331 4.42683 10.9992 4.79254C11.3653 5.15864 11.3879 5.73766 11.0676 6.13044L10.9992 6.20661L6.20529 11.0006H20.0022C20.5545 11.0006 21.0022 11.4483 21.0022 12.0006C21.002 12.5527 20.5543 13.0006 20.0022 13.0006H6.20725L10.9992 17.7925C11.3898 18.1831 11.3897 18.8161 10.9992 19.2066C10.6087 19.5971 9.9757 19.5971 9.58518 19.2066L3.43869 13.0601L3.33615 12.9459C2.88807 12.396 2.88782 11.603 3.33615 11.0533L3.43869 10.939L9.58518 4.79254L9.66135 4.72419Z" fill="white"/>
</svg>
