<svg width="20" height="20" viewBox="0 0 20 20" fill="none" xmlns="http://www.w3.org/2000/svg">
<path d="M6.71255 11.521L9.29205 5.72733C9.47927 5.30692 9.97186 5.1178 10.3923 5.30499C10.8127 5.49218 11.0018 5.98479 10.8146 6.40523L8.23512 12.1989L8.20276 12.2816C8.064 12.6954 8.2608 13.0976 8.57975 13.2396L8.75371 13.317L8.81931 13.3418C9.12946 13.4412 9.51757 13.3108 9.7179 12.9562L9.7577 12.8768L12.5964 6.501C13.1759 5.19896 12.655 3.76008 11.5287 3.18481L11.4177 3.13186L11.3568 3.10471C10.1345 2.56054 8.61942 3.14043 8.01177 4.50524L5.07445 11.1026L4.98797 11.3108C4.15228 13.4617 5.08656 15.8204 7.0481 16.6937L7.21166 16.7665L7.40281 16.8454C9.32533 17.5815 11.5847 16.6895 12.5904 14.6957L12.6873 14.492L15.3824 8.43891C15.5696 8.0185 16.0622 7.82938 16.4826 8.01657C16.903 8.20376 17.0921 8.69637 16.9049 9.1168L14.2099 15.1699L14.0794 15.445C12.7154 18.1476 9.58321 19.4663 6.80992 18.4032L6.53377 18.2891L6.37021 18.2163C3.53165 16.9525 2.30254 13.6218 3.43477 10.7057L3.55187 10.4247L6.4892 3.82734C7.44198 1.68736 9.90729 0.634971 12.0347 1.58214L12.0956 1.60928L12.2896 1.70187C14.2552 2.70422 15.0328 5.1259 14.119 7.1789L11.2803 13.5547L11.1685 13.7757C10.5819 14.8092 9.33047 15.3246 8.19312 14.8883L8.07582 14.8396L7.90185 14.7622C6.73439 14.2424 6.23462 12.9183 6.62307 11.752L6.71255 11.521Z" fill="white"/>
</svg>
