<svg width="24" height="24" viewBox="0 0 24 24" fill="none" xmlns="http://www.w3.org/2000/svg">
<path fill-rule="evenodd" clip-rule="evenodd" d="M18.7041 2.51074C19.7128 2.61301 20.5 3.46436 20.5 4.5V14.5C20.5 15.6046 19.6046 16.5 18.5 16.5H16.5V19.5C16.5 20.6046 15.6046 21.5 14.5 21.5H5.5C4.46436 21.5 3.613 20.7128 3.51074 19.7041L3.5 19.5V9.5C3.5 8.39543 4.39543 7.5 5.5 7.5H7.5V4.5C7.5 3.39543 8.39543 2.5 9.5 2.5H18.5L18.7041 2.51074ZM9.5 7.5H14.5L14.7041 7.51074C15.7128 7.613 16.5 8.46436 16.5 9.5V14.5H18.5V4.5H9.5V7.5Z" fill="white" fill-opacity="0.64"/>
</svg>
