<svg width="20" height="20" viewBox="0 0 20 20" fill="none" xmlns="http://www.w3.org/2000/svg">
<path fill-rule="evenodd" clip-rule="evenodd" d="M10.1489 0.837321C11.6871 0.915442 12.9037 2.1864 12.9037 3.73283C12.9037 4.29337 13.504 4.62682 13.973 4.35702L14.1048 4.2854C15.4748 3.58412 17.1675 4.07504 17.9435 5.41821L18.0151 5.54924C18.6904 6.86841 18.2571 8.49152 17.0093 9.29842L16.8815 9.37655L16.7977 9.4327C16.4057 9.73753 16.4335 10.3634 16.8815 10.6233L17.0093 10.7022C18.2564 11.5097 18.6905 13.1319 18.0151 14.4506L17.9435 14.5816L17.8678 14.7053C17.0877 15.9142 15.5362 16.3643 14.2342 15.7771L14.1048 15.7153L13.973 15.6436C13.5041 15.3731 12.9037 15.7063 12.9037 16.267L12.8996 16.4159C12.822 17.9436 11.5571 19.1664 9.99919 19.1666L9.84945 19.1625C8.36072 19.0871 7.17234 17.8945 7.09718 16.4159L7.09392 16.267C7.09388 15.7413 6.56572 15.4156 6.1141 15.5997L6.0254 15.6436C4.71969 16.397 3.07255 16.0224 2.21274 14.8274L2.13217 14.7094L2.05405 14.5816C1.28071 13.2417 1.69938 11.5369 2.9891 10.7022L3.11687 10.6233C3.56442 10.364 3.59262 9.73891 3.20151 9.43351L3.11768 9.37655L2.98992 9.29842C1.69919 8.46458 1.2811 6.75956 2.05405 5.41903L2.13217 5.29045C2.96623 4.00254 4.67692 3.57852 6.0254 4.35702L6.1141 4.40096C6.53744 4.57337 7.0278 4.29766 7.08741 3.82886L7.09392 3.73283C7.09392 2.13643 8.39085 0.833331 9.99919 0.833252L10.1489 0.837321ZM9.99838 7.21509C8.51584 7.21555 7.28482 8.37469 7.20948 9.85588L7.20623 9.99992L7.20948 10.144C7.28482 11.6251 8.51666 12.7843 9.99919 12.7847C11.4824 12.7846 12.7128 11.625 12.7881 10.144L12.7922 9.99992C12.7922 8.49906 11.6076 7.29226 10.1416 7.21834L9.99838 7.21509Z" fill="#BAB9BE"/>
</svg>
