<svg width="16" height="16" viewBox="0 0 16 16" fill="none" xmlns="http://www.w3.org/2000/svg">
<path d="M7.50885 1.43049C7.81878 1.28098 8.1812 1.28098 8.49114 1.43049L8.557 1.46475L8.64419 1.52142C8.83621 1.6618 8.94657 1.85668 9.01303 1.98474C9.09814 2.1488 9.18818 2.3658 9.28777 2.60438L10.3823 5.2274L10.4081 5.28781C10.4272 5.28942 10.4489 5.29199 10.4746 5.29404L13.3211 5.52134C13.5788 5.54193 13.8133 5.55999 13.996 5.58984C14.1388 5.6132 14.3587 5.6572 14.5518 5.79473L14.6327 5.86012L14.6854 5.91118C14.924 6.15713 15.0363 6.49831 14.9896 6.83659L14.977 6.90945C14.9201 7.18505 14.7387 7.38278 14.6226 7.49982C14.5577 7.56529 14.4803 7.63575 14.3949 7.71093L14.1183 7.95007L11.9455 9.80462C11.9262 9.82111 11.9091 9.83454 11.8947 9.84696C11.8991 9.86564 11.9044 9.88672 11.9104 9.91173L12.5734 12.6823L12.6568 13.0379C12.6815 13.1489 12.7025 13.2514 12.7164 13.3425C12.7381 13.4847 12.7637 13.7064 12.6913 13.9316L12.6537 14.0281C12.4999 14.3647 12.1891 14.6027 11.8257 14.6664L11.7523 14.6764C11.4699 14.7071 11.224 14.596 11.0761 14.5219C10.9933 14.4805 10.9017 14.4291 10.8032 14.3712L10.489 14.1819L8.05707 12.7017C8.03505 12.6882 8.01651 12.6767 7.99999 12.6668L7.94291 12.7017L5.51101 14.1819C5.28992 14.3165 5.08951 14.439 4.92389 14.5219C4.7945 14.5867 4.58999 14.6802 4.35183 14.682L4.2477 14.6764C3.87764 14.6361 3.55311 14.4172 3.37894 14.0941L3.34632 14.0281C3.22912 13.7714 3.25877 13.505 3.2836 13.3425C3.31141 13.1604 3.36663 12.9329 3.42661 12.6823L4.08963 9.91173L4.10468 9.84696L4.0545 9.80462L1.88166 7.95007C1.6856 7.78271 1.50724 7.63076 1.37734 7.49982C1.27575 7.39741 1.12433 7.23319 1.04991 7.00909L1.02294 6.90945C0.943271 6.52391 1.07426 6.12515 1.3673 5.86012L1.44822 5.79473C1.64128 5.6572 1.86114 5.6132 2.00398 5.58984C2.18664 5.55999 2.42118 5.54193 2.67891 5.52134L5.52544 5.29404L5.5913 5.28781C5.5987 5.27028 5.60788 5.25081 5.61764 5.2274L6.71222 2.60438L6.85524 2.26685C6.90079 2.16234 6.9444 2.06678 6.98696 1.98474C7.0629 1.8384 7.19604 1.60456 7.44298 1.46475L7.50885 1.43049Z" fill="white" fill-opacity="0.64"/>
</svg>
